<svg width="44" height="44" viewBox="0 0 44 44" fill="none" xmlns="http://www.w3.org/2000/svg">
<path d="M7.73993 36.2599C3.95795 32.4779 1.83325 27.3485 1.83325 21.9999C1.83325 16.6514 3.95795 11.5219 7.73993 7.73993C11.5219 3.95795 16.6514 1.83325 21.9999 1.83325C27.3485 1.83325 32.4779 3.95795 36.2599 7.73993C40.0419 11.5219 42.1666 16.6514 42.1666 21.9999C42.1666 27.3485 40.0419 32.4779 36.2599 36.2599C32.4779 40.0419 27.3485 42.1666 21.9999 42.1666C16.6514 42.1666 11.5219 40.0419 7.73993 36.2599ZM18.4771 17.8917H16.0002V22.0261H18.4771V34.3109H23.5652V22.0261H26.9795C26.9795 22.0261 27.2994 20.0433 27.4542 17.8761H23.5846V15.049C23.5846 14.6269 24.1391 14.0587 24.6876 14.0587H27.4599V9.75465H23.6906C18.4595 9.7544 18.4743 13.7263 18.477 14.4688C18.4771 14.4842 18.4771 14.4982 18.4771 14.5108V17.8917Z" fill="#3978EA"/>
</svg>
