<svg width="44" height="44" viewBox="0 0 44 44" fill="none" xmlns="http://www.w3.org/2000/svg">
<circle cx="21.9999" cy="21.9999" r="19.6667" fill="white" stroke="#EDF1F6"/>
<g clip-path="url(#clip0_293_7752)">
<path d="M14.5328 21.9999C14.5328 21.185 14.6718 20.4032 14.9178 19.6706L10.5994 16.4409C9.73172 18.1654 9.28116 20.0695 9.28395 21.9999C9.28395 23.9976 9.75664 25.882 10.5972 27.5546L14.9135 24.3195C14.6618 23.572 14.5332 22.7886 14.5328 21.9999Z" fill="#FBBC05"/>
<path d="M22.1178 14.5855C23.9251 14.5855 25.5582 15.2122 26.8415 16.2388L30.5749 12.5888C28.3002 10.6499 25.3839 9.45215 22.1178 9.45215C17.0465 9.45215 12.6874 12.2915 10.5999 16.441L14.9204 19.6707C15.915 16.7126 18.7512 14.5855 22.1178 14.5855Z" fill="#EA4335"/>
<path d="M22.1178 29.4146C18.7501 29.4146 15.9139 27.2874 14.9183 24.3293L10.5999 27.5591C12.6863 31.7085 17.0454 34.5479 22.1178 34.5479C25.247 34.5479 28.235 33.4603 30.4787 31.4208L26.3784 28.3173C25.2224 29.0306 23.7658 29.4146 22.1167 29.4146" fill="#34A853"/>
<path d="M34.367 21.9999C34.367 21.2587 34.2493 20.4599 34.075 19.7188H22.1165V24.5665H28.9994C28.6561 26.2199 27.7193 27.4904 26.3793 28.3171L30.4784 31.4206C32.8344 29.2796 34.367 26.0905 34.367 21.9999Z" fill="#4285F4"/>
</g>
<defs>
<clipPath id="clip0_293_7752">
<rect width="25.6667" height="25.6667" fill="white" transform="translate(9.16675 9.16675)"/>
</clipPath>
</defs>
</svg>
