<svg width="120" height="22" viewBox="0 0 120 22" fill="none" xmlns="http://www.w3.org/2000/svg">
<g clip-path="url(#clip0_25516_1189)">
<path d="M28.4177 0C23.427 0 19.3438 4.16216 19.3438 9.34363V18.2626H23.3858V9.34363C23.3858 6.49807 25.6543 4.16216 28.4177 4.16216C31.1811 4.16216 33.4496 6.4556 33.4496 9.34363V18.2626H37.4916V9.34363C37.4916 4.16216 33.4083 0 28.4177 0Z" fill="#00112F"/>
<path d="M9.07393 0C4.04202 0 0 4.16216 0 9.34363C0 14.4826 4.04202 18.6873 9.07393 18.6873C14.0646 18.6873 18.1479 14.5251 18.1479 9.34363C18.1479 4.16216 14.0646 0 9.07393 0ZM9.07393 14.5251C6.31051 14.5251 4.04202 12.1892 4.04202 9.34363C4.04202 6.49807 6.31051 4.16216 9.07393 4.16216C11.8374 4.16216 14.1058 6.49807 14.1058 9.34363C14.1058 12.1892 11.8374 14.5251 9.07393 14.5251Z" fill="#00112F"/>
<path d="M52.4632 11.1699C51.7621 13.1236 49.9061 14.5251 47.7613 14.5251C46.6477 14.5251 45.6166 14.1429 44.7917 13.5058L56.464 6.58301C55.2679 2.76062 51.8446 0 47.7613 0C42.7706 0 38.6874 4.16216 38.6874 9.34363C38.6874 14.4826 42.7294 18.6873 47.7613 18.6873C52.1745 18.6873 55.8453 15.4595 56.6702 11.1699H52.4632ZM47.7613 4.16216C48.8749 4.16216 49.9061 4.5444 50.7722 5.18147L42.7706 9.93822C42.7294 9.76834 42.7294 9.55598 42.7294 9.34363C42.7294 6.4556 44.9979 4.16216 47.7613 4.16216Z" fill="#00112F"/>
<path d="M81.006 4.96885C79.4387 4.96885 77.9951 5.64839 76.964 6.71016V1.01904H74.5305V18.2623H76.964V11.6368C76.964 9.34337 78.7788 7.47464 81.006 7.47464C82.7795 7.47464 84.2231 8.96113 84.2231 10.7874V18.2623H86.6566V10.7874C86.6566 7.60205 84.0994 4.96885 81.006 4.96885Z" fill="#02C8C6"/>
<path d="M91.1106 5.18115H88.6771V18.2622H91.1106V5.18115Z" fill="#02C8C6"/>
<path d="M62.8577 5.60587C62.8577 3.9495 65.0437 3.31243 67.2709 3.31243C69.0857 3.31243 70.488 3.9495 71.4367 4.50162L72.509 2.25066C71.2304 1.44371 69.3744 0.806641 67.2709 0.806641C62.8577 0.806641 60.4242 2.88772 60.4242 5.5634C60.4242 12.1889 70.9005 9.72556 70.9005 13.463C70.9005 15.3742 68.2608 15.9688 66.8584 15.9688C64.8374 15.9688 63.3938 15.2893 62.0328 14.3124L60.4242 16.1387C62.0328 17.4978 64.3425 18.4321 66.8584 18.4321C70.4055 18.4321 73.2927 16.9881 73.2927 13.463C73.3339 6.83753 62.8577 9.76803 62.8577 5.60587Z" fill="#02C8C6"/>
<path d="M99.4426 4.96899C97.9578 4.96899 96.5967 5.47865 95.5243 6.37054V5.18135H93.0908V21.9999H95.5243V17.0732C96.5967 17.9651 97.9578 18.4748 99.4426 18.4748C103.072 18.4748 106.001 15.4593 106.001 11.7219C106.001 7.98444 103.072 4.96899 99.4426 4.96899ZM99.4426 15.969C97.2566 15.969 95.5243 14.1427 95.5243 11.9342V11.5095C95.5243 9.25857 97.2978 7.47479 99.4426 7.47479C101.711 7.47479 103.567 9.38598 103.567 11.7219C103.567 14.0578 101.711 15.969 99.4426 15.969Z" fill="#02C8C6"/>
<path d="M89.8733 4.16211C90.7617 4.16211 91.4819 3.42052 91.4819 2.50574C91.4819 1.59095 90.7617 0.849365 89.8733 0.849365C88.9849 0.849365 88.2648 1.59095 88.2648 2.50574C88.2648 3.42052 88.9849 4.16211 89.8733 4.16211Z" fill="#02C8C6"/>
</g>
<defs>
<clipPath id="clip0_25516_1189">
<rect width="106" height="22" fill="white"/>
</clipPath>
</defs>
</svg>

