<svg width="314" height="63" viewBox="0 0 314 63" fill="none" xmlns="http://www.w3.org/2000/svg">
<g clip-path="url(#clip0_547_12485)">
<path d="M84.4639 0C69.7477 0 57.7072 11.9189 57.7072 26.7568V52.2973H69.6261V26.7568C69.6261 18.6081 76.3153 11.9189 84.4639 11.9189C92.6126 11.9189 99.3017 18.4865 99.3017 26.7568V52.2973H111.221V26.7568C111.221 11.9189 99.1801 0 84.4639 0Z" fill="white"/>
<path d="M27.4234 0C12.5855 0 0.666626 11.9189 0.666626 26.7568C0.666626 41.473 12.5855 53.5135 27.4234 53.5135C42.1396 53.5135 54.1801 41.5946 54.1801 26.7568C54.1801 11.9189 42.1396 0 27.4234 0ZM27.4234 41.5946C19.2747 41.5946 12.5855 34.9054 12.5855 26.7568C12.5855 18.6081 19.2747 11.9189 27.4234 11.9189C35.572 11.9189 42.2612 18.6081 42.2612 26.7568C42.2612 34.9054 35.572 41.5946 27.4234 41.5946Z" fill="white"/>
<path d="M155.369 31.9865C153.302 37.5811 147.829 41.5946 141.504 41.5946C138.221 41.5946 135.18 40.5 132.748 38.6757L167.167 18.8514C163.64 7.90541 153.545 0 141.504 0C126.788 0 114.748 11.9189 114.748 26.7568C114.748 41.473 126.667 53.5135 141.504 53.5135C154.518 53.5135 165.342 44.2703 167.775 31.9865H155.369ZM141.504 11.9189C144.788 11.9189 147.829 13.0135 150.383 14.8378L126.788 28.4595C126.667 27.973 126.667 27.3649 126.667 26.7568C126.667 18.4865 133.356 11.9189 141.504 11.9189Z" fill="white"/>
<path d="M239.531 14.2297C234.91 14.2297 230.653 16.1756 227.613 19.2162V2.91888H220.437V52.2973H227.613V33.3243C227.613 26.7567 232.964 21.4054 239.531 21.4054C244.761 21.4054 249.018 25.6621 249.018 30.8919V52.2973H256.194V30.8919C256.194 21.7702 248.653 14.2297 239.531 14.2297Z" fill="#02C8C6"/>
<path d="M269.329 14.8378H262.153V52.2973H269.329V14.8378Z" fill="#02C8C6"/>
<path d="M186.018 16.054C186.018 11.3108 192.464 9.48647 199.031 9.48647C204.383 9.48647 208.518 11.3108 211.315 12.8919L214.477 6.44593C210.707 4.13512 205.234 2.31079 199.031 2.31079C186.018 2.31079 178.842 8.27025 178.842 15.9324C178.842 34.9054 209.734 27.8513 209.734 38.554C209.734 44.027 201.95 45.7297 197.815 45.7297C191.856 45.7297 187.599 43.7838 183.586 40.9865L178.842 46.2162C183.586 50.1081 190.396 52.7838 197.815 52.7838C208.275 52.7838 216.788 48.6486 216.788 38.554C216.91 19.5811 186.018 27.973 186.018 16.054Z" fill="#02C8C6"/>
<path d="M293.896 14.2297C289.518 14.2297 285.504 15.6892 282.342 18.2433V14.8378H275.167V63H282.342V48.8919C285.504 51.446 289.518 52.9054 293.896 52.9054C304.599 52.9054 313.234 44.2703 313.234 33.5676C313.234 22.8649 304.599 14.2297 293.896 14.2297ZM293.896 45.7297C287.45 45.7297 282.342 40.5 282.342 34.1757V32.9595C282.342 26.5135 287.572 21.4054 293.896 21.4054C300.586 21.4054 306.059 26.8784 306.059 33.5676C306.059 40.2568 300.586 45.7297 293.896 45.7297Z" fill="#02C8C6"/>
<path d="M265.68 11.9189C268.3 11.9189 270.423 9.7953 270.423 7.17568C270.423 4.55606 268.3 2.43243 265.68 2.43243C263.061 2.43243 260.937 4.55606 260.937 7.17568C260.937 9.7953 263.061 11.9189 265.68 11.9189Z" fill="#02C8C6"/>
</g>
<defs>
<clipPath id="clip0_547_12485">
<rect width="312.568" height="63" fill="white" transform="translate(0.666626)"/>
</clipPath>
</defs>
</svg>
